<mxfile host="app.diagrams.net" modified="2020-11-21T08:59:54.595Z" agent="5.0 (Macintosh; Intel Mac OS X 10_15_7) AppleWebKit/537.36 (KHTML, like Gecko) Chrome/86.0.4240.198 Safari/537.36" etag="Fz0gVyXTZOTrP3BfMSkf" version="13.10.0" type="github">
  <diagram id="C5RBs43oDa-KdzZeNtuy" name="Page-1">
    <mxGraphModel dx="1567" dy="433" grid="1" gridSize="10" guides="1" tooltips="1" connect="1" arrows="1" fold="1" page="1" pageScale="1" pageWidth="827" pageHeight="1169" math="0" shadow="0">
      <root>
        <mxCell id="WIyWlLk6GJQsqaUBKTNV-0" />
        <mxCell id="WIyWlLk6GJQsqaUBKTNV-1" parent="WIyWlLk6GJQsqaUBKTNV-0" />
        <mxCell id="5KFbZfeuZQC9tGoLkEzS-25" style="edgeStyle=orthogonalEdgeStyle;rounded=0;orthogonalLoop=1;jettySize=auto;html=1;exitX=0.5;exitY=1;exitDx=0;exitDy=0;entryX=0.5;entryY=0;entryDx=0;entryDy=0;" edge="1" parent="WIyWlLk6GJQsqaUBKTNV-1" source="5KFbZfeuZQC9tGoLkEzS-26" target="5KFbZfeuZQC9tGoLkEzS-29">
          <mxGeometry relative="1" as="geometry" />
        </mxCell>
        <mxCell id="5KFbZfeuZQC9tGoLkEzS-26" value="查询脚本&lt;br&gt;where:&lt;br&gt;order_push_oms.query_wechat_pay_status=0 未检查&lt;br&gt;order_push_oms.wechat_pay_report_status=1 推送成功" style="rounded=1;whiteSpace=wrap;html=1;fontSize=12;glass=0;strokeWidth=1;shadow=0;" vertex="1" parent="WIyWlLk6GJQsqaUBKTNV-1">
          <mxGeometry x="63.74" width="306.25" height="70" as="geometry" />
        </mxCell>
        <mxCell id="5KFbZfeuZQC9tGoLkEzS-27" value="失败" style="edgeStyle=orthogonalEdgeStyle;rounded=0;orthogonalLoop=1;jettySize=auto;html=1;exitX=0.5;exitY=1;exitDx=0;exitDy=0;entryX=0.5;entryY=0;entryDx=0;entryDy=0;" edge="1" parent="WIyWlLk6GJQsqaUBKTNV-1" source="5KFbZfeuZQC9tGoLkEzS-29" target="5KFbZfeuZQC9tGoLkEzS-34">
          <mxGeometry relative="1" as="geometry" />
        </mxCell>
        <mxCell id="5KFbZfeuZQC9tGoLkEzS-28" value="成功" style="edgeStyle=orthogonalEdgeStyle;rounded=0;orthogonalLoop=1;jettySize=auto;html=1;exitX=1;exitY=0.5;exitDx=0;exitDy=0;entryX=0;entryY=0.5;entryDx=0;entryDy=0;" edge="1" parent="WIyWlLk6GJQsqaUBKTNV-1" source="5KFbZfeuZQC9tGoLkEzS-29" target="5KFbZfeuZQC9tGoLkEzS-30">
          <mxGeometry relative="1" as="geometry" />
        </mxCell>
        <mxCell id="5KFbZfeuZQC9tGoLkEzS-29" value="查询结果" style="rhombus;whiteSpace=wrap;html=1;shadow=0;fontFamily=Helvetica;fontSize=12;align=center;strokeWidth=1;spacing=6;spacingTop=-4;" vertex="1" parent="WIyWlLk6GJQsqaUBKTNV-1">
          <mxGeometry x="174.68" y="100" width="90" height="50" as="geometry" />
        </mxCell>
        <mxCell id="5KFbZfeuZQC9tGoLkEzS-30" value="update:&lt;br&gt;order.query_wechat_pay_status=1&amp;nbsp;申报成功&lt;br&gt;kc_user_extends.id_card_status=1 已验证过&lt;br&gt;order_push_oms.query_wechat_pay_status=1&amp;nbsp;申报成功&lt;br&gt;order_push_oms.query_wechat_pay_log 记录日志" style="rounded=1;whiteSpace=wrap;html=1;fontSize=12;glass=0;strokeWidth=1;shadow=0;" vertex="1" parent="WIyWlLk6GJQsqaUBKTNV-1">
          <mxGeometry x="360" y="79.38" width="320" height="91.25" as="geometry" />
        </mxCell>
        <mxCell id="5KFbZfeuZQC9tGoLkEzS-31" style="edgeStyle=orthogonalEdgeStyle;rounded=0;orthogonalLoop=1;jettySize=auto;html=1;exitX=0.5;exitY=1;exitDx=0;exitDy=0;entryX=0.5;entryY=0;entryDx=0;entryDy=0;" edge="1" parent="WIyWlLk6GJQsqaUBKTNV-1" source="5KFbZfeuZQC9tGoLkEzS-32" target="5KFbZfeuZQC9tGoLkEzS-36">
          <mxGeometry relative="1" as="geometry" />
        </mxCell>
        <mxCell id="5KFbZfeuZQC9tGoLkEzS-32" value="前端修改身份证(有order_id时)&lt;br&gt;update:&lt;br&gt;order.query_wechat_pay_status=5 待重新申报（需要新增状态）&lt;br&gt;order_push_oms.query_wechat_pay_status=5 待重新申报（需要新增状态）&lt;br&gt;order_push_oms.retry_push_wechat_pay=1&amp;nbsp;需要重新推送支付到微信海关&lt;br&gt;order_push_oms.retry_push_wechat_pay_status=0 待推送" style="rounded=1;whiteSpace=wrap;html=1;fontSize=12;glass=0;strokeWidth=1;shadow=0;" vertex="1" parent="WIyWlLk6GJQsqaUBKTNV-1">
          <mxGeometry x="10.62" y="285" width="418.12" height="110" as="geometry" />
        </mxCell>
        <mxCell id="5KFbZfeuZQC9tGoLkEzS-33" style="edgeStyle=orthogonalEdgeStyle;rounded=0;orthogonalLoop=1;jettySize=auto;html=1;exitX=0.5;exitY=1;exitDx=0;exitDy=0;entryX=0.5;entryY=0;entryDx=0;entryDy=0;" edge="1" parent="WIyWlLk6GJQsqaUBKTNV-1" source="5KFbZfeuZQC9tGoLkEzS-34" target="5KFbZfeuZQC9tGoLkEzS-32">
          <mxGeometry relative="1" as="geometry" />
        </mxCell>
        <mxCell id="5KFbZfeuZQC9tGoLkEzS-34" value="update:&lt;br&gt;order.query_wechat_pay_status=4 申报失败&lt;br&gt;order_push_oms.query_wechat_pay_status=4&amp;nbsp;申报失败&lt;br&gt;order_push_oms.query_wechat_pay_log 记录日志" style="rounded=1;whiteSpace=wrap;html=1;fontSize=12;glass=0;strokeWidth=1;shadow=0;" vertex="1" parent="WIyWlLk6GJQsqaUBKTNV-1">
          <mxGeometry x="63.74999999999999" y="180" width="311.87" height="80" as="geometry" />
        </mxCell>
        <mxCell id="5KFbZfeuZQC9tGoLkEzS-35" style="edgeStyle=orthogonalEdgeStyle;rounded=0;orthogonalLoop=1;jettySize=auto;html=1;exitX=0.5;exitY=1;exitDx=0;exitDy=0;entryX=0.5;entryY=0;entryDx=0;entryDy=0;" edge="1" parent="WIyWlLk6GJQsqaUBKTNV-1" source="5KFbZfeuZQC9tGoLkEzS-36" target="5KFbZfeuZQC9tGoLkEzS-42">
          <mxGeometry relative="1" as="geometry" />
        </mxCell>
        <mxCell id="5KFbZfeuZQC9tGoLkEzS-36" value="重新推送脚本&lt;br&gt;where:&lt;br&gt;order_push_oms.retry_push_wechat_pay=1&amp;nbsp;需要重新推送支付到微信海关&lt;br&gt;order_push_oms.retry_push_wechat_pay_status=0 待推送&lt;br&gt;重新申报状态:推送状态：0待推送；1推送成功；44失败停止推送；（这个字段需要新增）" style="rounded=1;whiteSpace=wrap;html=1;fontSize=12;glass=0;strokeWidth=1;shadow=0;" vertex="1" parent="WIyWlLk6GJQsqaUBKTNV-1">
          <mxGeometry x="15.619999999999997" y="420" width="408.13" height="100" as="geometry" />
        </mxCell>
        <mxCell id="5KFbZfeuZQC9tGoLkEzS-37" style="edgeStyle=orthogonalEdgeStyle;rounded=0;orthogonalLoop=1;jettySize=auto;html=1;exitX=0;exitY=0.5;exitDx=0;exitDy=0;entryX=0;entryY=0.5;entryDx=0;entryDy=0;" edge="1" parent="WIyWlLk6GJQsqaUBKTNV-1" source="5KFbZfeuZQC9tGoLkEzS-38" target="5KFbZfeuZQC9tGoLkEzS-26">
          <mxGeometry relative="1" as="geometry">
            <Array as="points">
              <mxPoint x="-30" y="695" />
              <mxPoint x="-30" y="35" />
            </Array>
          </mxGeometry>
        </mxCell>
        <mxCell id="5KFbZfeuZQC9tGoLkEzS-38" value="update:&lt;br&gt;order.query_wechat_pay_status=0 未检查&lt;br&gt;order.retry_push_wechat_pay_status=1 推送成功&lt;br&gt;order_push_oms.query_wechat_pay_status=0 未检查&lt;br&gt;order_push_oms.retry_push_wechat_pay_status=1 推送成功&lt;br&gt;order_push_oms.retry_push_wechat_pay_log 记录日志" style="rounded=1;whiteSpace=wrap;html=1;fontSize=12;glass=0;strokeWidth=1;shadow=0;" vertex="1" parent="WIyWlLk6GJQsqaUBKTNV-1">
          <mxGeometry x="39.440000000000005" y="640" width="360.48" height="110" as="geometry" />
        </mxCell>
        <mxCell id="5KFbZfeuZQC9tGoLkEzS-39" value="失败" style="edgeStyle=orthogonalEdgeStyle;rounded=0;orthogonalLoop=1;jettySize=auto;html=1;exitX=1;exitY=0.5;exitDx=0;exitDy=0;entryX=0;entryY=0.5;entryDx=0;entryDy=0;" edge="1" parent="WIyWlLk6GJQsqaUBKTNV-1" source="5KFbZfeuZQC9tGoLkEzS-42" target="5KFbZfeuZQC9tGoLkEzS-43">
          <mxGeometry relative="1" as="geometry" />
        </mxCell>
        <mxCell id="5KFbZfeuZQC9tGoLkEzS-40" style="edgeStyle=orthogonalEdgeStyle;rounded=0;orthogonalLoop=1;jettySize=auto;html=1;exitX=0.5;exitY=1;exitDx=0;exitDy=0;" edge="1" parent="WIyWlLk6GJQsqaUBKTNV-1" source="5KFbZfeuZQC9tGoLkEzS-42" target="5KFbZfeuZQC9tGoLkEzS-38">
          <mxGeometry relative="1" as="geometry" />
        </mxCell>
        <mxCell id="5KFbZfeuZQC9tGoLkEzS-41" value="成功" style="edgeLabel;html=1;align=center;verticalAlign=middle;resizable=0;points=[];" vertex="1" connectable="0" parent="5KFbZfeuZQC9tGoLkEzS-40">
          <mxGeometry x="-0.12" y="-2" relative="1" as="geometry">
            <mxPoint as="offset" />
          </mxGeometry>
        </mxCell>
        <mxCell id="5KFbZfeuZQC9tGoLkEzS-42" value="重推结果" style="rhombus;whiteSpace=wrap;html=1;shadow=0;fontFamily=Helvetica;fontSize=12;align=center;strokeWidth=1;spacing=6;spacingTop=-4;" vertex="1" parent="WIyWlLk6GJQsqaUBKTNV-1">
          <mxGeometry x="174.68" y="550" width="90" height="50" as="geometry" />
        </mxCell>
        <mxCell id="5KFbZfeuZQC9tGoLkEzS-43" value="update:&lt;br&gt;order.retry_push_wechat_pay_status=44 失败停止推送&lt;br&gt;order_push_oms.retry_push_wechat_pay_status=44 失败停止推送&lt;br&gt;order_push_oms.retry_push_wechat_pay_log 记录日志" style="rounded=1;whiteSpace=wrap;html=1;fontSize=12;glass=0;strokeWidth=1;shadow=0;" vertex="1" parent="WIyWlLk6GJQsqaUBKTNV-1">
          <mxGeometry x="360" y="539.92" width="400" height="70.16" as="geometry" />
        </mxCell>
        <mxCell id="5KFbZfeuZQC9tGoLkEzS-44" value="前端根据什么状态码判断&lt;br&gt;需要修改身份证?&lt;br&gt;答：&lt;br&gt;order.query_wechat_pay_status=4" style="ellipse;shape=cloud;whiteSpace=wrap;html=1;" vertex="1" parent="WIyWlLk6GJQsqaUBKTNV-1">
          <mxGeometry x="450" y="210" width="270" height="130" as="geometry" />
        </mxCell>
        <mxCell id="5KFbZfeuZQC9tGoLkEzS-45" value="重新推送失败了&lt;br&gt;需要做些什么？" style="ellipse;shape=cloud;whiteSpace=wrap;html=1;" vertex="1" parent="WIyWlLk6GJQsqaUBKTNV-1">
          <mxGeometry x="630" y="610.08" width="170" height="90" as="geometry" />
        </mxCell>
      </root>
    </mxGraphModel>
  </diagram>
</mxfile>
